<svg width="350" height="350" viewBox="0 0 350 350" fill="none" xmlns="http://www.w3.org/2000/svg">
<g clip-path="url(#clip0_15_76)">
<path d="M175 350C271.65 350 350 271.65 350 175C350 78.3502 271.65 0 175 0C78.3502 0 0 78.3502 0 175C0 271.65 78.3502 350 175 350Z" fill="#EF4B2E"/>
<path d="M263.256 150.023C261.003 142.883 255.959 139.457 251.186 143.452C246.653 147.127 240.721 161.437 234.836 174.93C229.7 186.222 224.63 196.538 219.708 204.422C217.301 208.967 214.987 212.389 213.136 210.227C212.83 201.889 216.251 177.739 217.875 155.522C217.945 151.716 217.118 148.566 215.429 146.051C207.515 135.411 198.546 136.408 188.842 145.285C179.239 157.251 167.969 182.293 156.445 209.313C155.032 211.531 154.091 211.557 153.693 209.007C153.671 206.854 153.746 204.662 153.899 202.444C151.195 208.285 146.103 213.749 139.09 218.601C139.807 220.793 140.691 222.757 141.776 224.442C146.702 232.391 153.343 231.731 160.724 227.347C169.579 220.071 176.999 207.734 183.645 192.657C188.37 182.814 192.508 172.633 196.021 162.098C196.879 159.937 197.693 159.477 198.467 160.877L196.481 180.285L194.341 207.791C194.245 210.77 194.705 213.946 195.562 217.267C199.22 225.767 206.001 228.97 214.816 228.729C220.574 228.742 225.855 224.962 230.86 218.951C244.304 200.471 255.066 181.772 261.419 162.719C263.243 157.889 264.149 153.514 263.252 150.036L263.256 150.023Z" fill="#252525"/>
<path d="M123.248 164.259C120.185 165.944 121.025 170.555 124.481 171.076C145.967 174.309 158.886 182.236 156.48 198.555C155.041 213.255 140.214 222.421 118.173 225.151C107.804 226.078 93.174 224.643 88.0946 218.715C87.0446 217.494 86.6202 215.858 86.8696 214.266C87.5871 209.624 91.389 206.867 101.097 207.734C101.18 207.742 101.268 207.747 101.351 207.747C117.315 208.053 130.808 206.71 136.749 200.327C136.946 200.113 137.121 199.881 137.265 199.627C138.95 196.704 139.501 193.992 136.548 191.914C131.726 188.514 116.873 188.199 104.243 185.382C95.6721 183.072 89.5821 179.152 90.1596 170.892C90.1727 170.73 90.1946 170.568 90.2296 170.406C91.1221 166.211 93.5502 162.824 97.4133 160.186C118.335 145.469 137.497 136.539 154.035 134.278C161.538 133.188 166.98 134.956 169.553 140.731C169.631 140.906 169.697 141.089 169.741 141.282C171.224 147.429 166.932 156.091 161.787 157.693C158.488 158.572 154.284 157.662 149.191 154.998C148.356 154.56 147.385 154.459 146.475 154.718C137.983 157.15 130.291 160.383 123.248 164.255V164.259Z" fill="#F1F1F1"/>
<path d="M169.763 158.878C176.922 158.878 182.726 153.074 182.726 145.915C182.726 138.756 176.922 132.952 169.763 132.952C162.604 132.952 156.8 138.756 156.8 145.915C156.8 153.074 162.604 158.878 169.763 158.878Z" fill="#252525"/>
<path d="M177.743 146.081C177.743 150.395 174.247 153.891 169.934 153.891C165.62 153.891 162.124 150.395 162.124 146.081C162.124 141.767 165.62 138.272 169.934 138.272C171.741 138.272 173.407 138.884 174.729 139.917C176.562 141.347 177.743 143.574 177.743 146.081Z" fill="#F1F1F1"/>
<path d="M193.362 119.656C185.85 130.042 178.338 136.264 170.822 138.32L177.704 146.816C179.209 140.424 186.252 130.064 193.362 119.652V119.656Z" fill="#F1F1F1"/>
</g>
<defs>
<clipPath id="clip0_15_76">
<rect width="350" height="350" fill="white"/>
</clipPath>
</defs>
</svg>
