<svg width="82" height="82" viewBox="0 0 82 82" fill="none" xmlns="http://www.w3.org/2000/svg">
<g clip-path="url(#clip0_15_76)">
<path d="M41 82C63.6437 82 82 63.6437 82 41C82 18.3563 63.6437 0 41 0C18.3563 0 0 18.3563 0 41C0 63.6437 18.3563 82 41 82Z" fill="#EF4B2E"/>
<path d="M61.6772 35.1483C61.1493 33.4755 59.9675 32.6729 58.8492 33.6087C57.7873 34.4697 56.3974 37.8225 55.0188 40.9836C53.8154 43.6291 52.6275 46.0461 51.4743 47.8931C50.9106 48.9581 50.3684 49.7597 49.9348 49.2533C49.863 47.2997 50.6646 41.6417 51.0449 36.4367C51.0613 35.545 50.8675 34.807 50.4719 34.2176C48.6177 31.7248 46.5164 31.9585 44.243 34.0382C41.9931 36.8416 39.3527 42.7087 36.6528 49.0391C36.3218 49.5588 36.1014 49.5649 36.0081 48.9673C36.003 48.463 36.0204 47.9495 36.0563 47.4298C35.4228 48.7982 34.2297 50.0784 32.5867 51.2152C32.7548 51.7287 32.9618 52.1889 33.216 52.5835C34.3702 54.446 35.9261 54.2912 37.6553 53.2641C39.7299 51.5596 41.4683 48.6691 43.0253 45.1369C44.1323 42.8307 45.1019 40.4455 45.925 37.9773C46.1259 37.4709 46.3165 37.3633 46.498 37.6913L46.0326 42.2382L45.5314 48.6824C45.5088 49.3804 45.6165 50.1246 45.8174 50.9025C46.6743 52.8941 48.263 53.6444 50.3284 53.588C51.6773 53.5911 52.9145 52.7055 54.0871 51.2972C57.2369 46.9676 59.7584 42.5867 61.2467 38.1228C61.6741 36.9912 61.8863 35.9662 61.6762 35.1514L61.6772 35.1483Z" fill="#252525"/>
<path d="M28.8751 38.4836C28.1576 38.8783 28.3544 39.9586 29.1642 40.0806C34.1979 40.8381 37.2248 42.6954 36.661 46.5186C36.3238 49.9626 32.8501 52.11 27.6861 52.7496C25.2569 52.9669 21.8293 52.6307 20.6392 51.2418C20.3932 50.9558 20.2938 50.5725 20.3522 50.1994C20.5203 49.1119 21.4111 48.4661 23.6855 48.6691C23.705 48.6711 23.7255 48.6721 23.745 48.6721C27.4852 48.7439 30.6463 48.4292 32.0383 46.9337C32.0844 46.8835 32.1254 46.8292 32.1592 46.7697C32.5538 46.085 32.683 45.4495 31.9911 44.9627C30.8616 44.1662 27.3817 44.0924 24.4225 43.4323C22.4145 42.8911 20.9877 41.9727 21.123 40.0375C21.1261 39.9996 21.1312 39.9617 21.1394 39.9238C21.3485 38.9408 21.9174 38.1474 22.8225 37.5294C27.724 34.0813 32.2135 31.9892 36.088 31.4593C37.8459 31.2041 39.121 31.6182 39.7237 32.9712C39.7422 33.0122 39.7575 33.0552 39.7678 33.1003C40.1153 34.5405 39.1097 36.57 37.9043 36.9451C37.1315 37.1511 36.1465 36.9379 34.9534 36.3137C34.7576 36.2112 34.53 36.1876 34.3168 36.2481C32.3273 36.818 30.5254 37.5755 28.8751 38.4826V38.4836Z" fill="#F1F1F1"/>
<path d="M39.7732 37.2229C41.4505 37.2229 42.8102 35.8631 42.8102 34.1858C42.8102 32.5085 41.4505 31.1487 39.7732 31.1487C38.0958 31.1487 36.7361 32.5085 36.7361 34.1858C36.7361 35.8631 38.0958 37.2229 39.7732 37.2229Z" fill="#252525"/>
<path d="M41.6426 34.2247C41.6426 35.2354 40.8237 36.0544 39.813 36.0544C38.8024 36.0544 37.9834 35.2354 37.9834 34.2247C37.9834 33.2141 38.8024 32.3951 39.813 32.3951C40.2363 32.3951 40.6269 32.5386 40.9364 32.7805C41.3659 33.1157 41.6426 33.6374 41.6426 34.2247Z" fill="#F1F1F1"/>
<path d="M45.302 28.0337C43.5421 30.4671 41.7822 31.9246 40.0212 32.4064L41.6336 34.3969C41.9862 32.8994 43.6364 30.4722 45.302 28.0327V28.0337Z" fill="#F1F1F1"/>
</g>
<defs>
<clipPath id="clip0_15_76">
<rect width="82" height="82" fill="white"/>
</clipPath>
</defs>
</svg>
